/* XPM */
static char *east2[] = {
"32 32 4 1",
". c #000000",
"R c #A52A2A",
"B c #8B0000",
"W c #FFFFFF",
"................................",
"................................",
"..RRRRRRRRRRRRRRRRRRRRRRRRRRRR..",
"..RRRRRRRRRRRRRRRRRRRRRRRRRRRR..",
"..RRRRRRRRRRRRRRRRRRRRRRRRRRRR..",
"..RRRRRRRRRRRRRRRRRRRRRRRRRRRR..",
"..RRRRRRRRRRRRRRRRRRRRRRRRRRRR..",
"..RRRRRRRRRRRRRRRRRRRRRRRRRRRR..",
"..BBBBBBBBBBBBBBBBBBBBBBBBBBBB..",
"..BBBBBBBBBBBBBBBBBBBBBBBBBBBB..",
"..BBBBBBBBBBBBBBBBBBBBBBBBBBBB..",
"..BBBBBBBBBBBBBBBBBBBBBBBBBBBB..",
"..RRRRRRRRRRRRRRRRRRRRRRRRRRRR..",
"..RRRRRRRRRRRRRRRRRRRRRRRRRRRR..",
"..RRRRRRRRRRRRRRRRRRRRRRRRRRRR..",
"..RRRRRRRRRRRRRRRRRRRRRRRRRRRR..",
"..BBBBBBBBBBBBBBBBBBBBBBBBBBBB..",
"..BBBBBBBBBBBBBBBBBBBBBBBBBBBB..",
"..BBBBBBBBBBBBBBBBBBBBBBBBBBBB..",
"..BBBBBBBBBBBBBBBBBBBBBBBBBBBB..",
"..RRRRRRRRRRRRRRRRRRRRRRRRRRRR..",
"..RRRRRRRRRRRRRRRRRRRRRRRRRRRR..",
"..RRRRRRRRRRRRRRRRRRRRRRRRRRRR..",
"..RRRRRRRRRRRRRRRRRRRRRRRRRRRR..",
"..BBBBBBBBBBBBBBBBBBBBBBBBBBBB..",
"..BBBBBBBBBBBBBBBBBBBBBBBBBBBB..",
"..BBBBBBBBBBBBBBBBBBBBBBBBBBBB..",
"..BBBBBBBBBBBBBBBBBBBBBBBBBBBB..",
"................................",
"................................",
"................................",
"................................"
};
