/* XPM */
static char *north[] = {
"32 32 4 1",
". c #000000",
"B c #00BFFF",
"W c #FFFFFF",
"C c #87CEFA",
"................................",
"................................",
"..BBBBBBBBBBBBBBBBBBBBBBBBBBBB..",
"..BBCCWWCCBBCCWWCCBBCCWWCCBBBB..",
"..BCCWWBBWWCCWWBBWWCCWWBBWWBBB..",
"..BWWCCWWBBWWCCWWBBWWCCWWCCBBB..",
"..BBCCWWCCBBCCWWCCBBCCWWCCBBBB..",
"..BBBBBBBBBBBBBBBBBBBBBBBBBBBB..",
"..CCWWCCBBCCWWCCBBCCWWCCBBCCBB..",
"..WWBBWWCCWWBBWWCCWWBBWWCCWWBB..",
"..CCWWCCBBCCWWCCBBCCWWCCBBCCBB..",
"..BBBBBBBBBBBBBBBBBBBBBBBBBBBB..",
"..BBCCWWCCBBCCWWCCBBCCWWCCBBBB..",
"..BCCWWBBWWCCWWBBWWCCWWBBWWBBB..",
"..BWWCCWWBBWWCCWWBBWWCCWWCCBBB..",
"..BBBBBBBBBBBBBBBBBBBBBBBBBBBB..",
"..CCWWCCBBCCWWCCBBCCWWCCBBCCBB..",
"..WWBBWWCCWWBBWWCCWWBBWWCCWWBB..",
"..CCWWCCBBCCWWCCBBCCWWCCBBCCBB..",
"..BBBBBBBBBBBBBBBBBBBBBBBBBBBB..",
"..BBCCWWCCBBCCWWCCBBCCWWCCBBBB..",
"..BCCWWBBWWCCWWBBWWCCWWBBWWBBB..",
"..BWWCCWWBBWWCCWWBBWWCCWWCCBBB..",
"..BBBBBBBBBBBBBBBBBBBBBBBBBBBB..",
"..CCWWCCBBCCWWCCBBCCWWCCBBCCBB..",
"..WWBBWWCCWWBBWWCCWWBBWWCCWWBB..",
"..CCWWCCBBCCWWCCBBCCWWCCBBCCBB..",
"..BBBBBBBBBBBBBBBBBBBBBBBBBBBB..",
"................................",
"................................",
"................................",
"................................"
};
